<?xml version="1.0" encoding="UTF-8"?>
<svg version="1.1" xmlns="http://www.w3.org/2000/svg" width="500" height="500">
<path d="M0 0 C0.66 0.33 1.32 0.66 2 1 C4.02781468 7.8945699 2.99151156 13.80071543 0.55859375 20.375 C-0.22479726 24.05638991 -0.12122825 26.38669873 1 30 C3.32402799 31.93789467 5.91133509 33.02441231 8.6875 34.1875 C10.10981145 34.82294579 11.53041646 35.46222598 12.94921875 36.10546875 C13.63467773 36.41379639 14.32013672 36.72212402 15.02636719 37.03979492 C18.54266714 38.75053313 21.9846181 40.66154204 24.375 43.8125 C25.92067558 49.22236453 25.27814463 53.61257722 22.61328125 58.5546875 C19.96719715 62.56545905 16.94638229 66.28746933 13.88549805 69.98852539 C9.32024135 75.57089154 7.47856708 80.0777342 7.609375 87.359375 C8.26699585 91.80489196 10.2872891 95.45437224 13 99 C15.66820986 101.19858972 15.66820986 101.19858972 17.9375 100.9375 C21.41908559 99.3549611 23.32274001 96.35451999 25 93 C25.09611752 91.37731009 25.12982352 89.75052694 25.125 88.125 C25.12757813 87.26132813 25.13015625 86.39765625 25.1328125 85.5078125 C25.01023921 83.19334029 24.64966445 81.21710884 24 79 C28.08358176 80.36119392 28.85452306 82.33192652 31 86 C32.25 89.375 32.25 89.375 33 92 C33.33 91.67 33.66 91.34 34 91 C33.90326838 85.09937094 32.78388762 81.2139478 30 76 C27.0386686 70.38417395 24.74636634 65.23101359 26.625 58.890625 C27.4375 56.9375 27.4375 56.9375 29 54 C29.66 54 30.32 54 31 54 C31.33 53.01 31.66 52.02 32 51 C32.66 51.33 33.32 51.66 34 52 C33.67 52.639375 33.34 53.27875 33 53.9375 C31.63941221 58.10430011 31.04201623 61.67455813 32 66 C33.5141789 68.26276172 35.20309986 70.07832136 37.11328125 72.015625 C44.14973642 79.41628592 45.55209236 86.89678229 45.33203125 96.78515625 C44.80023561 106.50410464 40.09999992 113.9601486 33.4453125 120.8125 C20.20038539 132.6609971 3.55784773 134.80698405 -13.49853516 134.17919922 C-26.61470896 133.23958653 -39.15186228 126.66459678 -48 117 C-55.35096178 106.72498898 -56.96876307 97.35172911 -56 85 C-54.44050032 78.23035366 -50.86959306 71.97347772 -46 67 C-44.515 66.505 -44.515 66.505 -43 66 C-43.165 66.94875 -43.33 67.8975 -43.5 68.875 C-44.76307933 78.26326129 -43.73187379 85.23676066 -40 94 C-39.67 94 -39.34 94 -39 94 C-38.99742187 93.20078125 -38.99484375 92.4015625 -38.9921875 91.578125 C-38.45382068 76.28850722 -31.64638552 67.90529909 -20.94921875 57.8359375 C-20.40612061 57.33626465 -19.86302246 56.8365918 -19.3034668 56.32177734 C-17.87668713 55.01137706 -17.87668713 55.01137706 -17 53 C-19.39151013 51.78044881 -21.79934298 50.63499881 -24.2421875 49.51953125 C-37.65148187 43.29463923 -37.65148187 43.29463923 -41 37 C-41.875 33.5625 -41.875 33.5625 -42 31 C-41.34 31 -40.68 31 -40 31 C-39.2265625 32.0828125 -39.2265625 32.0828125 -38.4375 33.1875 C-32.59978662 39.92332313 -24.50068429 41.98649189 -16.11645508 44.03710938 C-10.94658763 45.38932892 -7.76223591 47.15027023 -4 51 C-2.89094233 57.654346 -5.05753152 62.12446389 -8 68 C-8.92585738 69.95400495 -9.84241381 71.91244184 -10.75 73.875 C-11.17796875 74.77992188 -11.6059375 75.68484375 -12.046875 76.6171875 C-13.18569534 79.03651041 -13.18569534 79.03651041 -13 82 C-12.85046875 81.36835938 -12.7009375 80.73671875 -12.546875 80.0859375 C-10.34212721 72.58547196 -6.62694826 67.67565128 -1.41699219 62.03662109 C4.56772779 55.55259499 4.56772779 55.55259499 7.25 47.375 C4.17087631 41.52466498 -3.25806093 39.32413109 -9.21484375 37.3828125 C-11 36 -11 36 -11.98828125 32.7734375 C-12.00264718 28.14760654 -10.84171336 26.28647484 -8.25 22.5 C-2.49983393 14.27537691 -2.49983393 14.27537691 -0.875 4.625 C-0.91625 3.42875 -0.9575 2.2325 -1 1 C-0.67 0.67 -0.34 0.34 0 0 Z " fill="#FBBD07" transform="translate(244,117)"/>
<path d="M0 0 C0.66 0 1.32 0 2 0 C1.50853717 12.70431406 -2.18427689 22.02069689 -10 32 C-10.71542969 32.98033203 -10.71542969 32.98033203 -11.4453125 33.98046875 C-24.06663346 50.00492075 -44.79730667 59.6804711 -64 65 C-65.13566406 65.3196875 -66.27132812 65.639375 -67.44140625 65.96875 C-85.25309355 70.11904607 -107.91790436 71.10178146 -125 64 C-126.20269531 63.50242187 -127.40539062 63.00484375 -128.64453125 62.4921875 C-139.0063403 57.88952728 -148.1047189 51.45810054 -153 41 C-151.80375 41.45375 -150.6075 41.9075 -149.375 42.375 C-121.31188251 51.45551567 -87.19621407 44.12296282 -60 35 C-58.77152344 34.62230469 -57.54304688 34.24460937 -56.27734375 33.85546875 C-38.26357815 28.19183477 -11.47196626 19.26751562 -1.35546875 2.23046875 C-0.90816406 1.49441406 -0.46085938 0.75835937 0 0 Z " fill="#1E1914" transform="translate(326,231)"/>
<path d="M0 0 C3 1 3 1 4.1875 2.6875 C5.64795457 6.8441784 5.34526664 10.09298121 3.78515625 14.19140625 C3.21667969 15.30386719 2.64820313 16.41632813 2.0625 17.5625 C1.75473633 18.16529785 1.44697266 18.7680957 1.12988281 19.38916016 C-1.18512754 23.78859757 -3.85787311 27.83766451 -6.75 31.875 C-11.64401605 38.77339123 -14.95394215 44.20594683 -13.578125 52.89453125 C-12.04835292 58.46579578 -7.97383098 63.12805166 -3.14453125 66.16796875 C-0.08696463 67.84876991 2.16304665 69 5.6875 69 C9.76684613 67.23595843 12.37999483 65.29905846 14.3125 61.25 C14.539375 60.5075 14.76625 59.765 15 59 C15.33 59.99 15.66 60.98 16 62 C16.66 62 17.32 62 18 62 C18.33 62.99 18.66 63.98 19 65 C20.91466367 64.87822312 20.91466367 64.87822312 23 64 C26.05295029 59.98926138 26.45544324 56.65351468 26.6875 51.6875 C26.75324219 50.43324219 26.81898438 49.17898437 26.88671875 47.88671875 C26.92410156 46.93410156 26.96148437 45.98148438 27 45 C29.93642773 50.26692593 29.3326649 55.12497968 28.3125 60.875 C25.20296223 71.63231985 19.64503256 77.97832676 11 85 C10.36191406 85.54398437 9.72382813 86.08796875 9.06640625 86.6484375 C-1.99574289 93.88379402 -19.51813922 93.76715475 -32.03515625 91.3046875 C-43.89902055 88.23221775 -56.16045781 81.5491244 -63 71 C-67.63033993 58.34754849 -66.45594856 46.75409588 -63 34 C-62.34 34 -61.68 34 -61 34 C-60.67 33.01 -60.34 32.02 -60 31 C-59 33 -59 33 -59.9375 36.125 C-62.14625346 44.53053402 -62.60686765 54.77202085 -58.75 62.6875 C-57.87176015 64.14879353 -56.95982682 65.59095191 -56 67 C-55.4225 67.9075 -54.845 68.815 -54.25 69.75 C-50.91862246 73.08137754 -47.10538534 75.69369279 -43 78 C-42.34 78 -41.68 78 -41 78 C-41.2165625 77.21238281 -41.433125 76.42476563 -41.65625 75.61328125 C-44.53148951 64.3652378 -45.04835069 54.24079316 -42 43 C-41.34 43 -40.68 43 -40 43 C-39.9071875 41.63875 -39.9071875 41.63875 -39.8125 40.25 C-38.81553956 36.26215824 -37.35111834 35.23407889 -34 33 C-34.15855469 33.66644531 -34.31710938 34.33289063 -34.48046875 35.01953125 C-36.09315139 44.2712369 -36.03417608 53.65915317 -31.875 62.1796875 C-31 64 -31 64 -31 66 C-30.42378906 66.27585937 -29.84757812 66.55171875 -29.25390625 66.8359375 C-26.32837887 68.34686845 -23.64289005 70.15654519 -20.90234375 71.9765625 C-18.91970578 73.23688814 -18.91970578 73.23688814 -16 73 C-16.27714844 72.32453125 -16.55429688 71.6490625 -16.83984375 70.953125 C-17.38318359 69.61507812 -17.38318359 69.61507812 -17.9375 68.25 C-18.29714844 67.36828125 -18.65679687 66.4865625 -19.02734375 65.578125 C-22.28167768 56.95217965 -21.88687807 49.34920623 -18.375 40.8125 C-14.94322165 33.44261535 -10.68676545 27.88153198 -5.3125 21.875 C-0.52578257 16.42110735 1.35343923 12.3034427 1.203125 5.05078125 C1.05666607 2.80136379 1.05666607 2.80136379 0 0 Z " fill="#FB8E02" transform="translate(256,159)"/>
<path d="M0 0 C7.68796685 -0.42710927 14.58133271 0.69763223 21.0625 5.0625 C23.42938126 7.42938126 23.93402528 8.41942242 24.3125 11.75 C23.65341126 18.6045229 18.09360376 23.75083848 13 28 C-17.82938407 49.7954536 -59.15023106 59.98544091 -96.4375 60.25 C-97.54029297 60.25950684 -98.64308594 60.26901367 -99.77929688 60.27880859 C-109.13710519 60.24045692 -117.1828348 59.42415545 -125 54 C-127.14797488 51.40453035 -127.00178667 50.09469374 -126.9375 46.6875 C-124.78907781 38.2370394 -118.86705449 33.9221371 -112 29 C-111.34 29.33 -110.68 29.66 -110 30 C-110.5053125 30.50789063 -111.010625 31.01578125 -111.53125 31.5390625 C-115.65060207 35.81143199 -115.65060207 35.81143199 -117.6875 41.25 C-116.81488834 44.74044663 -115.92393522 45.90076446 -113 48 C-82.124253 59.28152294 -39.88464914 44.53275774 -11.8125 31.5625 C-2.90292969 27.28738809 7.42512 22.17927535 12 13 C12.55495606 8.92500968 12.55495606 8.92500968 10.76953125 5.42578125 C8.68636917 3.74729525 6.86513351 3.08938846 4.3125 2.3125 C3.50425781 2.06113281 2.69601562 1.80976563 1.86328125 1.55078125 C1.24839844 1.36902344 0.63351562 1.18726563 0 1 C0 0.67 0 0.34 0 0 Z " fill="#1D1913" transform="translate(299,211)"/>
<path d="M0 0 C3 2.0625 3 2.0625 5 5 C5.35438612 9.69561609 3.97899257 12.43595614 1.125 16 C-6.68484049 24.06173766 -16.77633036 28.51891684 -27 32.75 C-28.205354 33.25950195 -29.41070801 33.76900391 -30.65258789 34.29394531 C-36.86386849 36.91379945 -43.10510201 39.45154044 -49.37109375 41.9375 C-68.83230105 49.66456817 -84.25847478 56.13029409 -94.87109375 75.12890625 C-95.42990234 76.05509766 -95.42990234 76.05509766 -96 77 C-96.33 77 -96.66 77 -97 77 C-97.57168936 67.99589253 -95.54756658 61.86632984 -89.875 54.8125 C-82.40141877 46.98313188 -72.22301024 43.19638151 -62.42434692 39.07843018 C-34.896096 27.46647645 -34.896096 27.46647645 -14.5078125 6.19921875 C-10.62255404 0.53237804 -6.93375663 -0.71728517 0 0 Z " fill="#1D1813" transform="translate(427,174)"/>
<path d="M0 0 C5.94 0 11.88 0 18 0 C19.53389404 4.12458465 21.06508961 8.24998349 22.58984375 12.37792969 C23.10818909 13.77888046 23.62801649 15.17928388 24.14941406 16.57910156 C24.90309594 18.60335827 25.65124063 20.62959192 26.3984375 22.65625 C26.84880371 23.87119141 27.29916992 25.08613281 27.76318359 26.33789062 C29.05407419 30.16010913 30.02153323 34.08613291 31 38 C25.39 38 19.78 38 14 38 C13.67 36.68 13.34 35.36 13 34 C10.36 34.33 7.72 34.66 5 35 C4.67 35.99 4.34 36.98 4 38 C-1.61 38 -7.22 38 -13 38 C-10.8792521 29.79749442 -8.28749599 21.89049308 -5.375 13.9375 C-4.76398438 12.24850586 -4.76398438 12.24850586 -4.140625 10.52539062 C-1.16158997 2.32317995 -1.16158997 2.32317995 0 0 Z M8 18 C7.67 19.98 7.34 21.96 7 24 C8.32 23.67 9.64 23.34 11 23 C10.34 21.35 9.68 19.7 9 18 C8.67 18 8.34 18 8 18 Z " fill="#1E1A14" transform="translate(183,313)"/>
<path d="M0 0 C10.89 0 21.78 0 33 0 C33 12 33 12 29.75 15.9375 C28.50667791 16.96645621 27.2570691 17.98788441 26 19 C24.63704705 20.64253305 23.2888586 22.29870665 22 24 C25.63 24.33 29.26 24.66 33 25 C33 29.29 33 33.58 33 38 C22.11 38 11.22 38 0 38 C0 26 0 26 2.1875 22.421875 C3.115625 21.54015625 4.04375 20.6584375 5 19.75 C5.928125 18.83734375 6.85625 17.9246875 7.8125 16.984375 C8.534375 16.32953125 9.25625 15.6746875 10 15 C6.7 14.67 3.4 14.34 0 14 C0 9.38 0 4.76 0 0 Z " fill="#1E1914" transform="translate(332,313)"/>
<path d="M0 0 C10.56 0 21.12 0 32 0 C32 12 32 12 28.6875 16.5 C27.46251412 17.67105568 26.23345008 18.83786288 25 20 C24.01 21.32 23.02 22.64 22 24 C25.63 24.33 29.26 24.66 33 25 C33 29.29 33 33.58 33 38 C21.78 38 10.56 38 -1 38 C-1 27 -1 27 0.8984375 23.80859375 C1.71570313 23.02613281 2.53296875 22.24367188 3.375 21.4375 C4.18710938 20.63183594 4.99921875 19.82617188 5.8359375 18.99609375 C6.55007812 18.33738281 7.26421875 17.67867188 8 17 C8.66 16.34 9.32 15.68 10 15 C6.7 14.67 3.4 14.34 0 14 C0 9.38 0 4.76 0 0 Z " fill="#1E1A14" transform="translate(219,313)"/>
<path d="M0 0 C9.9 0 19.8 0 30 0 C30 3.63 30 7.26 30 11 C25.38 11 20.76 11 16 11 C16 11.99 16 12.98 16 14 C20.29 14 24.58 14 29 14 C29 17.3 29 20.6 29 24 C24.71 24 20.42 24 16 24 C16 24.99 16 25.98 16 27 C20.95 27 25.9 27 31 27 C31 30.63 31 34.26 31 38 C20.77 38 10.54 38 0 38 C0 25.46 0 12.92 0 0 Z " fill="#1F1A14" transform="translate(258,313)"/>
<path d="M0 0 C9.57 0 19.14 0 29 0 C29 3.63 29 7.26 29 11 C24.38 11 19.76 11 15 11 C15 11.99 15 12.98 15 14 C19.29 14 23.58 14 28 14 C28 17.3 28 20.6 28 24 C23.71 24 19.42 24 15 24 C15 24.99 15 25.98 15 27 C19.95 27 24.9 27 30 27 C30 30.63 30 34.26 30 38 C20.1 38 10.2 38 0 38 C0 25.46 0 12.92 0 0 Z " fill="#1F1A14" transform="translate(296,313)"/>
<path d="M0 0 C5.61 0 11.22 0 17 0 C17 7.92 17 15.84 17 24 C21.29 24 25.58 24 30 24 C30 28.62 30 33.24 30 38 C20.1 38 10.2 38 0 38 C0 25.46 0 12.92 0 0 Z " fill="#1E1913" transform="translate(136,313)"/>
<path d="M0 0 C0.66 0 1.32 0 2 0 C2.515625 0.721875 3.03125 1.44375 3.5625 2.1875 C9.44088414 8.97025093 17.63194581 11.01517882 26.05932617 13.125 C30.4269393 14.27685432 33.05994592 15.3500116 36 19 C34.68 19.33 33.36 19.66 32 20 C32 19.01 32 18.02 32 17 C29.69 17.33 27.38 17.66 25 18 C24.67 19.32 24.34 20.64 24 22 C3.41094952 11.55973502 3.41094952 11.55973502 1.1484375 5.8515625 C0.5625 3.625 0.5625 3.625 0 0 Z " fill="#F7C40F" transform="translate(202,148)"/>
<path d="M0 0 C3.56449477 5.34674216 2.70156487 12.74413112 2 19 C-0.44247 29.23228939 -6.93444539 37.52021197 -15.375 43.6875 C-16.24125 44.120625 -17.1075 44.55375 -18 45 C-18.99 44.67 -19.98 44.34 -21 44 C-20.41992188 43.59910156 -19.83984375 43.19820312 -19.2421875 42.78515625 C-11.11207744 36.86869002 -5.08019813 29.68372592 -3.4375 19.51953125 C-3.14492396 17.04047174 -2.85326289 14.56130408 -2.5625 12.08203125 C-2 9 -2 9 0 7 C0.16677282 3.41656024 0.16677282 3.41656024 0 0 Z " fill="#FAB90F" transform="translate(287,199)"/>
<path d="M0 0 C0.66 0 1.32 0 2 0 C1.77226744 2.12750156 1.51709182 4.25208056 1.25 6.375 C1.11078125 7.55835938 0.9715625 8.74171875 0.828125 9.9609375 C0 13 0 13 -2.078125 14.4140625 C-3.02945313 14.70410156 -3.02945313 14.70410156 -4 15 C-3.67 12.69 -3.34 10.38 -3 8 C-3.33 8.66 -3.66 9.32 -4 10 C-4.66 10 -5.32 10 -6 10 C-6.2165625 11.8253125 -6.2165625 11.8253125 -6.4375 13.6875 C-6.70737042 15.96212212 -7.03469978 18.1589975 -7.5234375 20.3984375 C-8.81489325 27.44851562 -8.51315891 34.2982429 -6 41 C-6.44140625 43.15625 -6.44140625 43.15625 -7 45 C-11.85462146 35.98427443 -12.62746318 25.9487192 -10.3046875 16.03125 C-8.10138082 10.03233097 -4.52952337 4.52952337 0 0 Z " fill="#F9B714" transform="translate(199,183)"/>
<path d="M0 0 C1.32 0.33 2.64 0.66 4 1 C3.34 1 2.68 1 2 1 C2.33 1.99 2.66 2.98 3 4 C2.67 4.66 2.34 5.32 2 6 C1.91413191 8.32416296 1.89288957 10.65083307 1.90234375 12.9765625 C1.90446617 14.00443375 1.90446617 14.00443375 1.90663147 15.05307007 C1.91223325 17.24375761 1.92478594 19.4343433 1.9375 21.625 C1.94251478 23.10937352 1.94707772 24.59374865 1.95117188 26.078125 C1.96135279 29.7188209 1.98092763 33.35929631 2 37 C10.91 37 19.82 37 29 37 C29 34.36 29 31.72 29 29 C29.66 29.33 30.32 29.66 31 30 C31 32.64 31 35.28 31 38 C20.77 38 10.54 38 0 38 C0 25.46 0 12.92 0 0 Z " fill="#15120C" transform="translate(258,313)"/>
<path d="M0 0 C3.3 0 6.6 0 10 0 C10.66 1.32 11.32 2.64 12 4 C11.125 6.25 11.125 6.25 10 8 C10.66 8 11.32 8 12 8 C12 8.99 12 9.98 12 11 C8.31245243 10.50168276 6.39509338 9.89932357 4 7 C4 7.99 4 8.98 4 10 C2.68 10 1.36 10 0 10 C0 6.7 0 3.4 0 0 Z M4 2 C4 2.66 4 3.32 4 4 C5.32 3.67 6.64 3.34 8 3 C6.68 2.67 5.36 2.34 4 2 Z " fill="#F08D17" transform="translate(258,368)"/>
<path d="M0 0 C0.33 2.64 0.66 5.28 1 8 C-2.8503105 10.56687367 -4.58569763 9.83288724 -9 9 C-9.95024979 5.30458414 -9.95024979 2.69541586 -9 -1 C-5.38055101 -2.34053666 -3.42632833 -1.61798838 0 0 Z M-7 5 C-6.67 5.66 -6.34 6.32 -6 7 C-5.01 6.67 -4.02 6.34 -3 6 C-4.32 5.67 -5.64 5.34 -7 5 Z " fill="#F59617" transform="translate(224,369)"/>
<path d="M0 0 C3.3 0 6.6 0 10 0 C10.814709 3.76802913 11 7.14681652 11 11 C9.0625 10.6875 9.0625 10.6875 7 10 C6.67 9.01 6.34 8.02 6 7 C5.01 7 4.02 7 3 7 C3 7.99 3 8.98 3 10 C2.01 10 1.02 10 0 10 C0 6.7 0 3.4 0 0 Z M3 2 C3 2.66 3 3.32 3 4 C4.32 3.67 5.64 3.34 7 3 C5.68 2.67 4.36 2.34 3 2 Z " fill="#ED9223" transform="translate(185,368)"/>
<path d="M0 0 C0.66 0 1.32 0 2 0 C2 3.63 2 7.26 2 11 C0.35 10.67 -1.3 10.34 -3 10 C-3.66 9.01 -4.32 8.02 -5 7 C-5.33 8.32 -5.66 9.64 -6 11 C-6.99 11 -7.98 11 -9 11 C-9 7.7 -9 4.4 -9 1 C-4.25 1.75 -4.25 1.75 -2 4 C-1.34 2.68 -0.68 1.36 0 0 Z " fill="#F19120" transform="translate(299,367)"/>
<path d="M0 0 C0.66 0.33 1.32 0.66 2 1 C2.40729228 3.32156597 2.74438677 5.6568787 3 8 C3.66 8 4.32 8 5 8 C5.33 5.69 5.66 3.38 6 1 C6.99 0.67 7.98 0.34 9 0 C10 1 10 1 10.25 4.875 C10.19964878 7.42460259 10.11640524 8.77403688 8.9375 11.0625 C5.82886019 12.56668055 3.27444462 11.72765436 0 11 C-1 10 -1 10 -1.1328125 7.96875 C-1.13023437 7.1540625 -1.12765625 6.339375 -1.125 5.5 C-1.12757813 4.6853125 -1.13015625 3.870625 -1.1328125 3.03125 C-1 1 -1 1 0 0 Z " fill="#EE9426" transform="translate(244,367)"/>
<path d="M0 0 C0.33 1.32 0.66 2.64 1 4 C0.05125 4.70125 -0.8975 5.4025 -1.875 6.125 C-4.99854626 8.69603218 -6.07381296 11.01739573 -7 15 C-7.66 15 -8.32 15 -9 15 C-9.33 15.99 -9.66 16.98 -10 18 C-12.0625 18.6875 -12.0625 18.6875 -14 19 C-16.13391403 25.25948114 -16.58955515 31.42208127 -17 38 C-17.99 37.67 -18.98 37.34 -20 37 C-18.43036235 23.3652371 -13.78221543 15.23261317 -4.42578125 5.56640625 C-1.91369393 3.05300385 -1.91369393 3.05300385 0 0 Z " fill="#F5BD18" transform="translate(250,170)"/>
<path d="M0 0 C3.3 0 6.6 0 10 0 C10 1.65 10 3.3 10 5 C9 6 9 6 6.4375 6.0625 C5.2309375 6.0315625 5.2309375 6.0315625 4 6 C4 6.66 4 7.32 4 8 C5.65 7.67 7.3 7.34 9 7 C9.33 7.99 9.66 8.98 10 10 C6.7 10 3.4 10 0 10 C0 6.7 0 3.4 0 0 Z " fill="#ED9115" transform="translate(200,368)"/>
<path d="M0 0 C1.65 0.33 3.3 0.66 5 1 C5.99 3.97 6.98 6.94 8 10 C4.04 10 0.08 10 -4 10 C-3.12686261 5.63431305 -2.34897511 3.57452735 0 0 Z M1 4 C1 4.66 1 5.32 1 6 C1.66 5.67 2.32 5.34 3 5 C2.34 4.67 1.68 4.34 1 4 Z " fill="#F49218" transform="translate(278,368)"/>
<path d="M0 0 C0.66 0.33 1.32 0.66 2 1 C4.29263015 8.79494252 2.51544747 15.55846791 0 23 C-0.81420374 20.55738878 -1.29035772 18.52415891 -1.625 16 C-1.72039062 15.319375 -1.81578125 14.63875 -1.9140625 13.9375 C-2 12 -2 12 -1 9 C-0.95721917 7.62566569 -0.95942727 6.24940127 -1 4.875 C-1 1 -1 1 0 0 Z " fill="#F4BB18" transform="translate(244,117)"/>
<path d="M0 0 C0.66 0 1.32 0 2 0 C2 4.29 2 8.58 2 13 C-8.23 13 -18.46 13 -29 13 C-29 12.67 -29 12.34 -29 12 C-19.76 12 -10.52 12 -1 12 C-0.34 9.69 0.32 7.38 1 5 C0.34 4.67 -0.32 4.34 -1 4 C-0.67 2.68 -0.34 1.36 0 0 Z " fill="#17130E" transform="translate(363,338)"/>
<path d="M0 0 C0 0.99 0 1.98 0 3 C-1.32 3 -2.64 3 -4 3 C-4 5.31 -4 7.62 -4 10 C-4.99 10 -5.98 10 -7 10 C-7 7.69 -7 5.38 -7 3 C-8.32 3 -9.64 3 -11 3 C-11 2.01 -11 1.02 -11 0 C-6.94952424 -1.35015859 -4.2079832 -0.62084998 0 0 Z " fill="#EC982D" transform="translate(239,368)"/>
<path d="M0 0 C1.22589844 0.15275391 1.22589844 0.15275391 2.4765625 0.30859375 C3.41628906 0.43427734 3.41628906 0.43427734 4.375 0.5625 C4.375 1.5525 4.375 2.5425 4.375 3.5625 C3.055 3.5625 1.735 3.5625 0.375 3.5625 C0.375 5.8725 0.375 8.1825 0.375 10.5625 C-0.615 10.5625 -1.605 10.5625 -2.625 10.5625 C-2.625 8.2525 -2.625 5.9425 -2.625 3.5625 C-3.945 3.5625 -5.265 3.5625 -6.625 3.5625 C-6.625 2.5725 -6.625 1.5825 -6.625 0.5625 C-4.10446405 -0.69776798 -2.7707902 -0.35624445 0 0 Z " fill="#EC9425" transform="translate(311.625,367.4375)"/>
<path d="M0 0 C0.99 0 1.98 0 3 0 C3 3.63 3 7.26 3 11 C-6.57 11 -16.14 11 -26 11 C-26 10.67 -26 10.34 -26 10 C-13.625 9.505 -13.625 9.505 -1 9 C1.64500987 2.72691589 1.64500987 2.72691589 0 0 Z " fill="#16100B" transform="translate(323,340)"/>
<path d="M0 0 C0.66 0.33 1.32 0.66 2 1 C2.625 4.0625 2.625 4.0625 3 7 C2.01 7.495 2.01 7.495 1 8 C1.33 8.66 1.66 9.32 2 10 C8.27 10.33 14.54 10.66 21 11 C21 11.33 21 11.66 21 12 C13.74 12 6.48 12 -1 12 C-1 1 -1 1 0 0 Z " fill="#18130D" transform="translate(219,339)"/>
<path d="M0 0 C0.99 0.66 1.98 1.32 3 2 C-1.21608093 7.16437877 -5.24031055 11.56633898 -11 15 C-11.99 14.67 -12.98 14.34 -14 14 C-13.40832031 13.57589844 -12.81664062 13.15179688 -12.20703125 12.71484375 C-7.08166998 8.91053808 -3.41398103 5.39629259 0 0 Z " fill="#F6BD1D" transform="translate(280,229)"/>
<path d="M0 0 C0.33 0.66 0.66 1.32 1 2 C0.67 2.99 0.34 3.98 0 5 C-0.09697215 7.61539582 -0.13922262 10.1979083 -0.125 12.8125 C-0.12886719 13.51181641 -0.13273438 14.21113281 -0.13671875 14.93164062 C-0.12899562 19.05965562 0.19915368 22.95127695 1 27 C0.34 26.67 -0.32 26.34 -1 26 C-1.66796875 23.26953125 -1.66796875 23.26953125 -2.1875 19.8125 C-2.36667969 18.68457031 -2.54585937 17.55664062 -2.73046875 16.39453125 C-2.99747 13.03186336 -2.70302382 10.28576383 -2 7 C-2.66 7 -3.32 7 -4 7 C-3.43628586 3.73045798 -2.50037734 2.17424117 0 0 Z " fill="#F79800" transform="translate(221,192)"/>
<path d="M0 0 C0.66 0 1.32 0 2 0 C3.36639342 1.6396721 4.6949419 3.31110128 6 5 C7.31494512 6.35147138 8.64264858 7.69112542 10 9 C8.68 9.99 7.36 10.98 6 12 C2.28930302 8.00386479 0.40208382 5.62917348 0 0 Z " fill="#EFBF29" transform="translate(202,148)"/>
<path d="M0 0 C1.98 0.99 1.98 0.99 4 2 C3.34 2 2.68 2 2 2 C1.67 12.89 1.34 23.78 1 35 C0.67 35 0.34 35 0 35 C0 23.45 0 11.9 0 0 Z " fill="#18150E" transform="translate(137,315)"/>
<path d="M0 0 C2.98483994 5.35376053 2.43741068 10.63581151 1.125 16.4375 C0.75375 17.613125 0.3825 18.78875 0 20 C-0.66 20.33 -1.32 20.66 -2 21 C-2.66 20.34 -3.32 19.68 -4 19 C-3.51917969 18.32582031 -3.03835938 17.65164062 -2.54296875 16.95703125 C-0.68179418 13.39017265 -0.49954907 10.69035008 -0.3125 6.6875 C-0.24675781 5.43324219 -0.18101562 4.17898437 -0.11328125 2.88671875 C-0.05720703 1.45779297 -0.05720703 1.45779297 0 0 Z " fill="#F49D00" transform="translate(283,204)"/>
<path d="M0 0 C-3.43071182 1.53649202 -6.87051918 3.05144123 -10.3125 4.5625 C-11.28896484 5.00013672 -12.26542969 5.43777344 -13.27148438 5.88867188 C-14.20927734 6.29794922 -15.14707031 6.70722656 -16.11328125 7.12890625 C-16.97735596 7.51119385 -17.84143066 7.89348145 -18.73168945 8.28735352 C-21 9 -21 9 -24 8 C-21.90246455 6.91238902 -19.82416424 5.93059115 -17.625 5.0625 C-14.91078653 4.00839467 -14.91078653 4.00839467 -12.0625 2.5 C-4.14049587 -1.38016529 -4.14049587 -1.38016529 0 0 Z " fill="#15120E" transform="translate(406,204)"/>
<path d="M0 0 C0.66 0 1.32 0 2 0 C2 3.63 2 7.26 2 11 C-2 9 -2 9 -3 6 C-2.34 6 -1.68 6 -1 6 C-1.0309375 4.7934375 -1.0309375 4.7934375 -1.0625 3.5625 C-1 1 -1 1 0 0 Z " fill="#F8960E" transform="translate(299,367)"/>
<path d="M0 0 C0.66 0.33 1.32 0.66 2 1 C2.38749213 3.32495277 2.71758117 5.6599583 3 8 C3.33 8.99 3.66 9.98 4 11 C2.35 10.67 0.7 10.34 -1 10 C-1.02689216 8.52093108 -1.04634621 7.04172517 -1.0625 5.5625 C-1.07410156 4.73878906 -1.08570313 3.91507812 -1.09765625 3.06640625 C-1 1 -1 1 0 0 Z " fill="#F4981D" transform="translate(244,367)"/>
<path d="M0 0 C3.42298577 1.14099526 4.14758766 2.00085621 6 5 C6 5.99 6 6.98 6 8 C5.01 8 4.02 8 3 8 C3 10.64 3 13.28 3 16 C2.34 16 1.68 16 1 16 C1.01160156 15.18015625 1.02320313 14.3603125 1.03515625 13.515625 C1.04869141 11.89914063 1.04869141 11.89914063 1.0625 10.25 C1.07410156 9.18265625 1.08570313 8.1153125 1.09765625 7.015625 C1.01510087 4.46631499 0.74617558 2.42066409 0 0 Z " fill="#F2BB23" transform="translate(268,196)"/>
<path d="M0 0 C0.66 0 1.32 0 2 0 C1.67 1.65 1.34 3.3 1 5 C-5.625 6.25 -5.625 6.25 -9 4 C-9 3.34 -9 2.68 -9 2 C-5.97580475 2.58803797 -2.98241547 3.22678118 0 4 C0 2.68 0 1.36 0 0 Z " fill="#E3922C" transform="translate(223,373)"/>
<path d="M0 0 C3.465 1.485 3.465 1.485 7 3 C7 4.32 7 5.64 7 7 C4.36 6.34 1.72 5.68 -1 5 C-0.67 3.35 -0.34 1.7 0 0 Z " fill="#FCC006" transform="translate(216,158)"/>
<path d="M0 0 C0.66 0.33 1.32 0.66 2 1 C3.17169312 4.98375661 3.08089427 8.87439224 3 13 C2.34 12.01 1.68 11.02 1 10 C0.01 10.495 0.01 10.495 -1 11 C-1.02688151 9.35425434 -1.04634123 7.70838587 -1.0625 6.0625 C-1.07410156 5.14597656 -1.08570313 4.22945313 -1.09765625 3.28515625 C-1 1 -1 1 0 0 Z " fill="#ECBD36" transform="translate(244,117)"/>
<path d="M0 0 C4.7517398 0.43197635 6.92000054 1.32769295 10 5 C8.68 5.33 7.36 5.66 6 6 C6 5.01 6 4.02 6 3 C4.02 3.33 2.04 3.66 0 4 C0 2.68 0 1.36 0 0 Z " fill="#F8BD17" transform="translate(228,162)"/>
<path d="M0 0 C1.65 0 3.3 0 5 0 C5.33 0.66 5.66 1.32 6 2 C6.99 2.66 7.98 3.32 9 4 C8 5 8 5 5.625 5.1875 C3 5 3 5 0 3 C0 2.01 0 1.02 0 0 Z " fill="#FB9415" transform="translate(201,369)"/>
<path d="M0 0 C0.33 0.66 0.66 1.32 1 2 C-1.68899452 5.32169911 -5.05312508 6.56477275 -9 8 C-9.66 7.67 -10.32 7.34 -11 7 C-7.37 4.69 -3.74 2.38 0 0 Z " fill="#171410" transform="translate(311,246)"/>
<path d="M0 0 C1.98 0.66 3.96 1.32 6 2 C5.67 2.66 5.34 3.32 5 4 C5.99 5.32 6.98 6.64 8 8 C7.01 8 6.02 8 5 8 C3.61328125 6.50390625 3.61328125 6.50390625 2.3125 4.5625 C1.87550781 3.92441406 1.43851563 3.28632813 0.98828125 2.62890625 C0 1 0 1 0 0 Z " fill="#14120F" transform="translate(173,272)"/>
<path d="M0 0 C3.465 1.485 3.465 1.485 7 3 C7 4.32 7 5.64 7 7 C5.35 7 3.7 7 2 7 C2.33 6.01 2.66 5.02 3 4 C2.01 3.67 1.02 3.34 0 3 C0 2.01 0 1.02 0 0 Z " fill="#F5BA0D" transform="translate(256,216)"/>
<path d="M0 0 C1.11375 0.556875 1.11375 0.556875 2.25 1.125 C1.92 2.115 1.59 3.105 1.25 4.125 C-1.39 3.135 -4.03 2.145 -6.75 1.125 C-4.02098495 -0.69434337 -3.21400584 -1.02263822 0 0 Z " fill="#ED9423" transform="translate(221.75,367.875)"/>
<path d="M0 0 C2 1 2 1 4 3 C6.57061311 3.64767793 6.57061311 3.64767793 9 4 C9 4.33 9 4.66 9 5 C5.7 5 2.4 5 -1 5 C-0.67 3.35 -0.34 1.7 0 0 Z " fill="#16120C" transform="translate(171,346)"/>
<path d="M0 0 C1.27351308 2.54702616 0.80191925 3.4282945 0.0625 6.125 C-0.13214844 6.84945312 -0.32679688 7.57390625 -0.52734375 8.3203125 C-0.68332031 8.87460938 -0.83929688 9.42890625 -1 10 C-1.99 10 -2.98 10 -4 10 C-3.67 7.69 -3.34 5.38 -3 3 C-2.34 3 -1.68 3 -1 3 C-0.67 2.01 -0.34 1.02 0 0 Z " fill="#F7A502" transform="translate(196,190)"/>
<path d="M0 0 C0.66 0 1.32 0 2 0 C2 0.66 2 1.32 2 2 C2.99 2.33 3.98 2.66 5 3 C4.01 4.98 3.02 6.96 2 9 C1.34 9 0.68 9 0 9 C0.185625 8.2575 0.37125 7.515 0.5625 6.75 C0.99203108 4.05009037 0.85122974 2.55368923 0 0 Z " fill="#F7C011" transform="translate(232,180)"/>
<path d="M0 0 C0.33 0 0.66 0 1 0 C1.25 6.625 1.25 6.625 -1 10 C-1.82638376 7.10765685 -2 5.11257569 -2 2 C-1.34 2 -0.68 2 0 2 C0 1.34 0 0.68 0 0 Z " fill="#F4BA14" transform="translate(268,163)"/>
<path d="M0 0 C1.65 0 3.3 0 5 0 C4.34 2.64 3.68 5.28 3 8 C2.34 8 1.68 8 1 8 C0.67 5.36 0.34 2.72 0 0 Z " fill="#F78E0D" transform="translate(232,369)"/>
<path d="M0 0 C0 3 0 3 -1.3125 4.38671875 C-2.875 5.59114583 -4.4375 6.79557292 -6 8 C-6.99 7.34 -7.98 6.68 -9 6 C-8.43410156 5.65066406 -7.86820312 5.30132812 -7.28515625 4.94140625 C-6.55167969 4.48636719 -5.81820313 4.03132812 -5.0625 3.5625 C-4.33160156 3.11003906 -3.60070312 2.65757812 -2.84765625 2.19140625 C-1.06100191 1.13135967 -1.06100191 1.13135967 0 0 Z " fill="#F89800" transform="translate(269,223)"/>
<path d="M0 0 C3 2 3 2 3.6875 5.125 C3.8421875 6.548125 3.8421875 6.548125 4 8 C4.99 8.33 5.98 8.66 7 9 C6.67 9.66 6.34 10.32 6 11 C3.34730103 8.52414762 1.31989897 6.40973899 0 3 C0 2.01 0 1.02 0 0 Z " fill="#FEB308" transform="translate(222,216)"/>
<path d="M0 0 C0.66 0 1.32 0 2 0 C1.67 1.32 1.34 2.64 1 4 C1.66 4 2.32 4 3 4 C3 4.99 3 5.98 3 7 C1.35 6.67 -0.3 6.34 -2 6 C-2 5.34 -2 4.68 -2 4 C-1.34 4 -0.68 4 0 4 C0 2.68 0 1.36 0 0 Z " fill="#ED9925" transform="translate(267,372)"/>
<path d="M0 0 C0.66 0 1.32 0 2 0 C1.67 2.31 1.34 4.62 1 7 C-0.32 6.34 -1.64 5.68 -3 5 C-1.125 1.125 -1.125 1.125 0 0 Z " fill="#EDB62B" transform="translate(199,183)"/>
<path d="M0 0 C-0.33 1.32 -0.66 2.64 -1 4 C-2.9375 3.6875 -2.9375 3.6875 -5 3 C-5.33 2.01 -5.66 1.02 -6 0 C-3 -1 -3 -1 0 0 Z " fill="#F68F0D" transform="translate(224,373)"/>
<path d="M0 0 C0.99 0.33 1.98 0.66 3 1 C2.67 3.31 2.34 5.62 2 8 C1.34 8 0.68 8 0 8 C0 5.36 0 2.72 0 0 Z " fill="#FA8C0A" transform="translate(186,369)"/>
<path d="M0 0 C0.99 0.33 1.98 0.66 3 1 C2.67 1.99 2.34 2.98 2 4 C1.01 4 0.02 4 -1 4 C-1 4.99 -1 5.98 -1 7 C-1.66 7 -2.32 7 -3 7 C-1.125 1.125 -1.125 1.125 0 0 Z " fill="#EE9124" transform="translate(278,368)"/>
<path d="M0 0 C3.3 0 6.6 0 10 0 C10 0.99 10 1.98 10 3 C6.7 2.34 3.4 1.68 0 1 C0 0.67 0 0.34 0 0 Z " fill="#EC962B" transform="translate(200,368)"/>
<path d="M0 0 C0.33 0.66 0.66 1.32 1 2 C-0.32 3.65 -1.64 5.3 -3 7 C-3.99 6.67 -4.98 6.34 -6 6 C-4.02 4.02 -2.04 2.04 0 0 Z " fill="#14110C" transform="translate(226,331)"/>
<path d="M0 0 C2.5654594 2.5654594 2.54046087 4.47686668 3 8 C1 6.6875 1 6.6875 -1 5 C-1 2 -1 2 0 0 Z " fill="#14120E" transform="translate(203,321)"/>
<path d="M0 0 C1.093125 0.0825 2.18625 0.165 3.3125 0.25 C0.10913178 3.08374881 -2.46837253 3.7705537 -6.6875 4.25 C-4.79150483 0.68106792 -4.16790733 0.28256999 0 0 Z " fill="#EE9322" transform="translate(263.6875,243.75)"/>
<path d="M0 0 C0.99 0 1.98 0 3 0 C3.66 2.97 4.32 5.94 5 9 C2.67527795 6.14693203 1.2491742 3.45925163 0 0 Z " fill="#F2BA1F" transform="translate(272,188)"/>
<path d="M0 0 C0.66 0 1.32 0 2 0 C0.87548273 2.9719385 -0.22293791 5.33440687 -2 8 C-2.66 8 -3.32 8 -4 8 C-3.625 6.0625 -3.625 6.0625 -3 4 C-2.34 3.67 -1.68 3.34 -1 3 C-0.67 2.01 -0.34 1.02 0 0 Z " fill="#F4BF19" transform="translate(265,173)"/>
<path d="M0 0 C-1.32 1.32 -2.64 2.64 -4 4 C-4.99 2.68 -5.98 1.36 -7 0 C-4.3333581 -1.33332095 -2.83319697 -0.67102033 0 0 Z " fill="#F2B920" transform="translate(212,156)"/>
</svg>
